<svg width="73" height="43" viewBox="0 0 73 43" fill="none" xmlns="http://www.w3.org/2000/svg">
<g clip-path="url(#clip0)">
<path d="M71.4934 16.3858C69.8495 15.4561 66.0823 15.1074 63.1372 15.5723C62.795 13.248 61.2195 11.2144 58.4798 9.41305L56.9046 8.48332L55.8084 9.81981C54.4388 11.563 53.7539 14.0036 53.9592 16.3279C54.0276 17.1412 54.3701 18.5939 55.3975 19.8723C54.4388 20.3371 52.4524 20.9182 49.8498 20.9182H0.329553L0.192678 21.3831C-0.286955 23.7072 -0.286955 30.9705 5.32948 36.5486C9.57603 40.7903 15.8774 42.9403 24.1649 42.9403C42.1098 42.9403 55.3975 35.9092 61.6305 23.1842C64.0962 23.2423 69.3702 23.1842 72.0415 18.8261C72.1099 18.7099 72.2468 18.4774 72.7262 17.6061L73.0002 17.1412L71.4934 16.3858ZM39.9181 0H32.3843V5.81058H39.9181V0ZM39.9181 6.97274H32.3843V12.7833H39.9181V6.97251V6.97274ZM31.0141 6.97274H23.4803V12.7833H31.0141V6.97251V6.97274ZM22.1101 6.97274H14.576V12.7833H22.1101V6.97251V6.97274ZM13.2061 13.9455H5.67196V19.7561H13.2058V13.9452L13.2061 13.9455ZM22.1101 13.9455H14.576V19.7561H22.1101V13.9452V13.9455ZM31.0141 13.9455H23.4803V19.7561H31.0141V13.9452V13.9455ZM39.9184 13.9455H32.384V19.7561H39.9184V13.9452V13.9455ZM48.8224 13.9455H41.288V19.7561H48.8224V13.9452V13.9455Z" fill="#2396ED"/>
</g>
<defs>
<clipPath id="clip0">
<rect width="73" height="43" fill="white"/>
</clipPath>
</defs>
</svg>
