<svg width="60" height="55" viewBox="0 0 60 55" fill="none" xmlns="http://www.w3.org/2000/svg">
<g clip-path="url(#clip0)">
<path d="M56.6885 55.0002C58.5171 55.0002 60 53.6411 60 51.9647V3.03553C60 1.35889 58.5171 0 56.6885 0H3.31148C1.48219 0 0 1.35889 0 3.03553V51.9647C0 53.6411 1.48219 55.0002 3.31148 55.0002H56.6885" fill="#395185"/>
<path d="M41.3988 55.0002V33.7012H49.1981L50.3658 25.4008H41.3988V20.101C41.3988 17.6978 42.127 16.06 45.8866 16.06L50.6817 16.0581V8.63414C49.852 8.53295 47.0058 8.30693 43.6945 8.30693C36.7809 8.30693 32.048 12.1752 32.048 19.2792V25.4008H24.2288V33.7012H32.048V55.0002H41.3988" fill="white"/>
</g>
<defs>
<clipPath id="clip0">
<rect width="60" height="55" fill="white"/>
</clipPath>
</defs>
</svg>
