<svg width="64" height="61" viewBox="0 0 64 61" fill="none" xmlns="http://www.w3.org/2000/svg">
<g clip-path="url(#clip0)">
<path d="M54.53 51.9751H45.0473V37.8205C45.0473 34.4452 44.984 30.1002 40.1153 30.1002C35.1763 30.1002 34.4205 33.7778 34.4205 37.5748V51.9741H24.938V22.8667H34.0413V26.8445H34.1688C35.0798 25.3598 36.3963 24.1384 37.978 23.3104C39.5597 22.4824 41.3474 22.0788 43.1508 22.1425C52.762 22.1425 54.534 28.1682 54.534 36.0072L54.53 51.9751V51.9751ZM14.238 18.8881C11.1988 18.8886 8.7345 16.5405 8.734 13.6437C8.7335 10.747 11.1968 8.39822 14.236 8.39775C17.2753 8.39703 19.7395 10.7451 19.74 13.6418C19.7403 15.0329 19.1608 16.3672 18.1289 17.351C17.0971 18.3349 15.6975 18.8878 14.238 18.8881V18.8881ZM18.9795 51.9753H9.48675V22.8667H18.9793V51.9751L18.9795 51.9753ZM59.2575 0.00381402H4.72175C2.14425 -0.0238266 0.0305006 1.94414 -0.000999451 4.40082V56.597C0.0295006 59.0549 2.143 61.0248 4.7215 60.999H59.2575C61.8415 61.0295 63.9633 59.0597 63.999 56.597V4.39677C63.9623 1.93532 61.8403 -0.0324047 59.2575 -0.000236761" fill="#0A66C2"/>
</g>
<defs>
<clipPath id="clip0">
<rect width="64" height="61" fill="white"/>
</clipPath>
</defs>
</svg>
