<svg width="87" height="80" viewBox="0 0 87 80" fill="none" xmlns="http://www.w3.org/2000/svg">
<path d="M39.3838 50.9525C39.5992 53.5614 39.5573 56.183 39.2587 58.785C39.2462 59.1507 39.1293 59.507 38.9198 59.8181C38.7104 60.1291 38.4156 60.3841 38.0652 60.5575C35.8059 62.1 28.2342 62.47 27.2908 59.1925C26.9428 59.18 27.2201 58.12 26.8884 58.16C26.2262 58.11 25.5859 57.9176 25.0192 57.5985C24.4526 57.2793 23.9753 56.8423 23.6259 56.3225C23.6395 52.7375 24.0691 39.805 17.1009 43.2875C15.5867 44.0635 14.4511 45.341 13.9254 46.86C13.4559 48.1852 13.2353 49.5742 13.2729 50.9675C13.2186 52.7525 13.7025 54.705 13.7732 56.8475C13.8004 57.805 13.9662 58.0475 13.1914 58.8625C11.9435 60.175 9.76575 59.0675 8.58853 57.625C8.09067 56.8985 7.81719 56.061 7.79737 55.2025C6.8611 45.8377 7.7823 36.3945 10.5161 27.3325C11.5139 24.2575 11.8619 23.8125 15.0374 23.1225C18.6506 22.3917 22.3665 22.1892 26.0483 22.5225C28.9057 21.6675 35.6863 17.0375 38.6117 20.7125C43.0504 19.8063 47.6416 19.7265 52.1143 20.4779C56.5871 21.2293 60.851 22.7966 64.6546 25.0875C68.5071 25.3556 72.3732 25.4199 76.2337 25.28C76.7775 24.96 77.4137 24.6175 77.9683 24.3225C78.3754 24.069 78.8326 23.8915 79.3141 23.8C79.9394 23.71 80.755 23.685 80.9453 24.4C81.1109 25.1337 81.1667 25.8849 81.1112 26.6325C81.0923 27.0832 80.9099 27.5151 80.5931 27.8595C80.2763 28.2038 79.8433 28.4407 79.363 28.5325C78.2777 28.3687 77.2255 28.0551 76.2419 27.6025C72.7075 27.6925 70.5325 27.5125 66.9981 27.6025C67.5664 28.1625 67.5419 28.5325 67.9552 29.2725C68.971 31.7307 69.3101 34.3816 68.9425 36.9895C68.5749 39.5974 67.5119 42.0812 65.8481 44.22C65.598 47.945 65.9025 51.7075 65.9324 55.445C65.946 56.7325 66.0439 57.9575 64.7253 58.8125C63.5623 59.4536 62.255 59.8411 60.9037 59.9451C59.5525 60.0491 58.1933 59.8669 56.9306 59.4125C56.2424 59.0492 55.6279 58.5789 55.1145 58.0225C54.6631 58.068 54.2081 58.0764 53.7551 58.0475C52.9849 57.8494 52.3192 57.4008 51.8819 56.785C51.6313 56.3638 51.4176 55.9249 51.243 55.4725C51.243 53.7225 51.1723 53.0375 51.1723 51.29C47.2527 51.9351 43.2307 51.8313 39.3566 50.985L39.3838 50.9525Z" fill="#CCCCCC"/>
<path d="M32.8833 62.0975C31.7603 62.1129 30.6424 61.9574 29.5746 61.6375C28.9818 61.4911 28.4343 61.2197 27.9756 60.8448C27.5168 60.4698 27.1595 60.0017 26.9319 59.4775C26.7338 59.2505 26.6366 58.9628 26.6601 58.6725V58.56C25.969 58.4647 25.3082 58.2345 24.722 57.8848C24.1358 57.5351 23.6378 57.074 23.2616 56.5325L23.1964 56.435V55.785C23.2208 52.83 23.2834 44.9775 20.3852 43.38C19.8974 43.1621 19.3543 43.0702 18.8141 43.1142C18.2739 43.1583 17.7569 43.3365 17.3184 43.63C15.8899 44.3619 14.82 45.5685 14.3278 47.0025C13.8796 48.2843 13.67 49.6265 13.7079 50.9725C13.708 51.9762 13.7853 52.9787 13.939 53.9725C14.0559 54.8875 14.1756 55.8375 14.2109 56.835C14.2109 56.9825 14.2109 57.11 14.2299 57.225C14.2918 57.5707 14.2597 57.9252 14.1363 58.2567C14.013 58.5883 13.8023 58.8866 13.5231 59.125C13.3022 59.3648 13.0242 59.5545 12.7106 59.6794C12.3971 59.8043 12.0564 59.861 11.7151 59.845C11.0184 59.7565 10.3496 59.5345 9.75207 59.1935C9.1545 58.8524 8.64141 58.3998 8.24597 57.865C7.68838 57.0817 7.38474 56.1686 7.37053 55.2325C6.4222 45.8186 7.35093 36.3246 10.111 27.2175C11.1306 24.08 11.5792 23.4675 14.9477 22.735C18.5768 22.0006 22.3085 21.7922 26.0076 22.1175C26.8207 21.8263 27.615 21.4925 28.3865 21.1175C31.736 19.5775 36.298 17.485 38.802 20.2825C43.24 19.4019 47.8239 19.3391 52.2884 20.0977C56.753 20.8564 61.0097 22.4215 64.8123 24.7025C68.5763 24.9627 72.3535 25.0228 76.125 24.8825C76.6687 24.575 77.2451 24.255 77.7726 23.975L77.9248 23.895C78.3325 23.6489 78.7888 23.479 79.2679 23.395C80.475 23.2225 81.171 23.5275 81.3803 24.2975C81.5547 25.069 81.6141 25.8587 81.5571 26.645C81.5298 27.1913 81.3025 27.713 80.9121 28.1255C80.5217 28.5381 79.9911 28.8172 79.4065 28.9175H79.3358L79.2679 28.9C79.0332 28.8448 78.7975 28.7932 78.561 28.745C77.7127 28.6115 76.8913 28.3603 76.125 28C74.404 28.04 72.9848 28.0175 71.6146 28C70.4374 27.9825 69.2275 27.9625 67.8247 27.9825C67.9117 28.14 67.9742 28.2925 68.0422 28.4475C68.1304 28.6659 68.2321 28.8796 68.3467 29.0875C69.4014 31.5993 69.7644 34.3119 69.4034 36.9839C69.0424 39.6559 67.9687 42.2043 66.2777 44.4025C66.1254 46.8175 66.2043 49.295 66.2777 51.6925C66.3185 52.92 66.3592 54.1925 66.3674 55.4425V55.6575C66.4983 56.2997 66.4378 56.9625 66.1923 57.5756C65.9467 58.1887 65.5253 58.7293 64.9727 59.14C63.7514 59.8237 62.3742 60.2376 60.9495 60.3491C59.5248 60.4606 58.0914 60.2666 56.7621 59.7825C56.1768 59.5161 55.6554 59.1446 55.2287 58.69C55.1335 58.6 55.0384 58.51 54.9405 58.425C54.8073 58.425 54.6686 58.44 54.5463 58.4525C54.2485 58.4956 53.9449 58.4905 53.6491 58.4375C52.7746 58.215 52.018 57.7076 51.5203 57.01C51.329 56.7262 51.173 56.4234 51.0554 56.1075C50.9917 55.949 50.9228 55.7922 50.8488 55.6375L50.8107 55.56V55.475C50.8107 54.6075 50.7944 53.99 50.7754 53.395C50.7618 52.895 50.7482 52.395 50.7427 51.7475C47.1337 52.2934 43.4456 52.2155 39.8677 51.5175C40.0312 53.9603 39.9721 56.4113 39.691 58.845C39.6706 59.262 39.5351 59.6674 39.2973 60.0229C39.0595 60.3785 38.7272 60.6726 38.3317 60.8775C36.6754 61.7447 34.7877 62.1674 32.8833 62.0975V62.0975ZM27.5301 58.8025H27.6279L27.7095 59.0875C27.8739 59.5293 28.1574 59.9257 28.5335 60.2396C28.9095 60.5535 29.3659 60.7746 29.86 60.8825C32.4992 61.6223 35.3477 61.3902 37.8042 60.235C38.1061 60.0935 38.3605 59.8792 38.5401 59.615C38.7197 59.3507 38.8178 59.0465 38.8237 58.735C39.1079 56.2637 39.1579 53.7743 38.9733 51.295L38.7422 51.235L39.6937 49.5L39.8052 50.6575C43.5309 51.4151 47.3825 51.4898 51.1397 50.8775L51.6318 50.8175V51.2725C51.6318 52.14 51.6481 52.7575 51.6671 53.3525C51.6862 53.9475 51.6997 54.535 51.7025 55.37C51.7704 55.5175 51.8302 55.66 51.8901 55.7975C51.9861 56.0594 52.1128 56.3108 52.268 56.5475C52.6488 57.0838 53.2285 57.4747 53.8992 57.6475C54.0939 57.6743 54.2918 57.6743 54.4865 57.6475C54.7066 57.6235 54.9282 57.6126 55.1498 57.615H55.313L55.4326 57.7175C55.5794 57.8425 55.7262 57.98 55.873 58.1175C56.222 58.4936 56.6466 58.8043 57.1237 59.0325C58.318 59.461 59.603 59.6332 60.8807 59.5362C62.1584 59.4392 63.3952 59.0754 64.4969 58.4725C65.5518 57.7875 65.5382 56.8475 65.5219 55.655V55.4375C65.5219 54.1875 65.4729 52.9375 65.4322 51.7075C65.3533 49.24 65.2717 46.6875 65.4322 44.185V44.02L65.5681 43.91C67.1708 41.8373 68.1927 39.433 68.5432 36.9102C68.8936 34.3874 68.5619 31.8241 67.5773 29.4475C67.4483 29.2145 67.334 28.9749 67.2347 28.73C67.1253 28.4082 66.9396 28.1128 66.6909 27.865L66.0357 27.2175L66.9954 27.1925C68.7735 27.1475 70.2253 27.17 71.6336 27.1925C73.0419 27.215 74.4747 27.2375 76.231 27.1925H76.3588L76.4676 27.255C77.1763 27.6082 77.9432 27.8522 78.7377 27.9775C78.9607 28.025 79.1809 28.07 79.3957 28.12C79.7532 28.0177 80.0679 27.8168 80.297 27.5444C80.5261 27.272 80.6585 26.9414 80.6762 26.5975C80.7281 25.8883 80.675 25.176 80.5185 24.48C80.4804 24.3275 80.407 24.04 79.3875 24.1875C79.0147 24.2549 78.6599 24.3891 78.3435 24.5825L78.1912 24.6625C77.6475 24.9475 77.0249 25.295 76.4757 25.61L76.3751 25.6675H76.2582C72.3805 25.8135 68.4969 25.7492 64.6274 25.475H64.5132L64.4181 25.415C60.6623 23.1505 56.4507 21.602 52.0324 20.8613C47.6141 20.1205 43.0791 20.2025 38.696 21.1025L38.4241 21.1475L38.2637 20.9475C36.2328 18.3975 31.9181 20.38 28.7671 21.8275C27.9329 22.2378 27.0701 22.5969 26.1843 22.9025L26.0973 22.9275H26.0076C22.3714 22.5976 18.7013 22.7967 15.1326 23.5175C12.0848 24.1775 11.8701 24.5175 10.9267 27.4525C8.19312 36.465 7.27176 45.8607 8.2079 55.1775C8.21373 55.9598 8.45664 56.7251 8.90934 57.3875C9.22939 57.8263 9.64361 58.2004 10.1266 58.4867C10.6095 58.773 11.151 58.9656 11.7178 59.0525C11.93 59.0638 12.1421 59.0292 12.3371 58.9515C12.5321 58.8738 12.7046 58.7551 12.8407 58.605C13.0452 58.4444 13.199 58.2362 13.286 58.0023C13.3731 57.7683 13.3901 57.5171 13.3355 57.275C13.3355 57.1525 13.3192 57.025 13.3164 56.865C13.2749 55.9298 13.1841 54.9971 13.0446 54.07C12.8855 53.0406 12.8065 52.0022 12.808 50.9625C12.7683 49.5203 12.9991 48.0826 13.4904 46.7125C14.0557 45.1086 15.2601 43.7609 16.8617 42.94C17.4292 42.5734 18.0949 42.3563 18.7868 42.3123C19.4787 42.2682 20.1705 42.3988 20.7876 42.69C24.1126 44.5225 24.0501 52.415 24.0229 55.785V56.2025C24.334 56.6362 24.7462 57.0007 25.2297 57.2697C25.7131 57.5387 26.2556 57.7053 26.8177 57.7575C26.8905 57.7501 26.9641 57.7562 27.0341 57.7755C27.1042 57.7948 27.1693 57.827 27.2256 57.87C27.3239 57.9715 27.3988 58.0903 27.4455 58.2192C27.4923 58.3482 27.5099 58.4846 27.4974 58.62C27.5219 58.6775 27.5246 58.75 27.5301 58.8025V58.8025Z" fill="#CCCCCC"/>
<path d="M37.7662 49.9525C37.9815 52.5614 37.9397 55.183 37.6411 57.785C37.6285 58.1507 37.5117 58.507 37.3022 58.8181C37.0927 59.1291 36.798 59.3841 36.4476 59.5575C34.1883 61.1 26.6166 61.47 25.6732 58.1925C25.3252 58.18 25.6025 57.12 25.2708 57.16C24.6085 57.11 23.9682 56.9176 23.4016 56.5985C22.8349 56.2793 22.3577 55.8423 22.0083 55.3225C22.0219 51.7375 22.4514 38.805 15.4833 42.2875C13.9691 43.0635 12.8335 44.341 12.3078 45.86C11.8383 47.1852 11.6176 48.5742 11.6553 49.9675C11.6009 51.7525 12.0848 53.705 12.1555 55.8475C12.1827 56.805 12.3486 57.0475 11.5737 57.8625C10.3258 59.175 8.14809 58.0675 6.97087 56.625C6.47302 55.8985 6.19953 55.061 6.17972 54.2025C5.24344 44.8377 6.16464 35.3945 8.89847 26.3325C9.89625 23.2575 10.2442 22.8125 13.4197 22.1225C17.033 21.3917 20.7489 21.1892 24.4307 21.5225C27.2881 20.6675 34.0687 16.0375 36.994 19.7125C41.4328 18.8063 46.0239 18.7265 50.4967 19.4779C54.9695 20.2293 59.2334 21.7966 63.0369 24.0875C66.8895 24.3556 70.7555 24.4199 74.6161 24.28C75.1598 23.96 75.796 23.6175 76.3507 23.3225C76.7577 23.069 77.215 22.8915 77.6964 22.8C78.3217 22.71 79.1374 22.685 79.3277 23.4C79.4932 24.1337 79.549 24.8849 79.4935 25.6325C79.4747 26.0832 79.2923 26.5151 78.9755 26.8595C78.6586 27.2038 78.2256 27.4407 77.7454 27.5325C76.66 27.3687 75.6078 27.0551 74.6242 26.6025C71.0899 26.6925 68.9149 26.5125 65.3805 26.6025C65.9487 27.1625 65.9242 27.5325 66.3375 28.2725C67.3533 30.7307 67.6925 33.3816 67.3249 35.9895C66.9573 38.5973 65.8943 41.0812 64.2305 43.22C63.9803 46.945 64.2848 50.7075 64.3147 54.445C64.3283 55.7325 64.4262 56.9575 63.1076 57.8125C61.9446 58.4536 60.6373 58.8411 59.2861 58.9451C57.9349 59.0491 56.5757 58.8669 55.313 58.4125C54.6247 58.0492 54.0102 57.5789 53.4968 57.0225C53.0454 57.068 52.5905 57.0764 52.1375 57.0475C51.3672 56.8494 50.7015 56.4008 50.2642 55.785C50.0136 55.3638 49.8 54.9249 49.6253 54.4725C49.6253 52.7225 49.5547 52.0375 49.5547 50.29C45.6351 50.9351 41.613 50.8313 37.739 49.985L37.7662 49.9525Z" fill="#373435"/>
<path d="M31.2656 61.0975C30.1427 61.1129 29.0247 60.9574 27.9569 60.6375C27.3641 60.4911 26.8166 60.2197 26.3579 59.8448C25.8992 59.4698 25.5418 59.0017 25.3143 58.4775C25.1161 58.2505 25.019 57.9628 25.0424 57.6725V57.56C24.3514 57.4647 23.6905 57.2345 23.1043 56.8848C22.5181 56.5351 22.0202 56.074 21.644 55.5325L21.5787 55.435V54.785C21.6032 51.83 21.6657 43.9775 18.7675 42.38C18.2797 42.1621 17.7367 42.0702 17.1965 42.1142C16.6563 42.1583 16.1393 42.3366 15.7008 42.63C14.2723 43.3619 13.2023 44.5685 12.7102 46.0025C12.2619 47.2843 12.0524 48.6265 12.0903 49.9725C12.0904 50.9763 12.1676 51.9788 12.3214 52.9725C12.4383 53.89 12.5579 54.8375 12.5932 55.8375C12.5932 55.985 12.5932 56.1125 12.6123 56.2275C12.6742 56.5732 12.642 56.9277 12.5187 57.2592C12.3953 57.5908 12.1846 57.8891 11.9054 58.1275C11.6847 58.3675 11.4067 58.5573 11.0931 58.6822C10.7795 58.8071 10.4387 58.8636 10.0974 58.8475C9.40073 58.759 8.73198 58.537 8.13441 58.196C7.53684 57.8549 7.02375 57.4023 6.62831 56.8675C6.07086 56.0841 5.76723 55.1711 5.75287 54.235C4.80421 44.8203 5.73294 35.3254 8.49338 26.2175C9.51291 23.08 9.9615 22.4675 13.33 21.735C16.9591 21.0005 20.6908 20.7921 24.3899 21.1175C25.203 20.8263 25.9973 20.4925 26.7688 20.1175C30.1183 18.5775 34.6804 16.4825 37.1843 19.2825C41.6225 18.4024 46.2065 18.34 50.671 19.0991C55.1356 19.8582 59.3921 21.4237 63.1946 23.705C66.954 23.9665 70.7266 24.0283 74.4937 23.89C75.0239 23.5875 75.6166 23.26 76.1413 22.9825L76.2936 22.9025C76.7012 22.6564 77.1576 22.4865 77.6366 22.4025C78.8437 22.23 79.5397 22.535 79.7491 23.305C79.9235 24.0765 79.9829 24.8663 79.9258 25.6525C79.8985 26.1988 79.6712 26.7205 79.2808 27.1331C78.8904 27.5456 78.3599 27.8247 77.7753 27.925H77.7046L77.6366 27.9075C77.4019 27.8523 77.1663 27.8007 76.9297 27.7525C76.0877 27.6157 75.2728 27.3629 74.5128 27.0025C72.7918 27.0425 71.3726 27.02 70.0024 27.0025C68.8251 26.985 67.6153 26.965 66.2124 26.985C66.2994 27.1425 66.362 27.295 66.4299 27.45C66.5182 27.6685 66.6199 27.8821 66.7344 28.09C67.7889 30.6018 68.1518 33.3144 67.7908 35.9863C67.4299 38.6583 66.3562 41.2068 64.6655 43.405C64.5132 45.82 64.5921 48.2975 64.6655 50.6925C64.7035 51.9225 64.7443 53.1925 64.7552 54.4425V54.6575C64.8864 55.2995 64.8263 55.9621 64.5813 56.5752C64.3362 57.1883 63.9153 57.729 63.3632 58.14C62.1419 58.8237 60.7647 59.2376 59.34 59.3491C57.9153 59.4606 56.4819 59.2666 55.1526 58.7825C54.5673 58.5161 54.0459 58.1446 53.6192 57.69C53.524 57.6 53.4289 57.51 53.331 57.425C53.1978 57.425 53.0591 57.44 52.9368 57.4525C52.6391 57.4957 52.3354 57.4906 52.0396 57.4375C51.1651 57.215 50.4085 56.7076 49.9108 56.01C49.7193 55.7263 49.5633 55.4235 49.4459 55.1075C49.3822 54.949 49.3133 54.7922 49.2393 54.6375L49.2012 54.56V54.475C49.2012 53.6075 49.1849 52.99 49.1659 52.395C49.1523 51.895 49.136 51.395 49.1332 50.7475C45.5242 51.2933 41.8362 51.2153 38.2582 50.5175C38.4148 52.9583 38.3493 55.4068 38.0625 57.8375C38.0421 58.2545 37.9066 58.6599 37.6687 59.0154C37.4309 59.371 37.0986 59.6651 36.7031 59.87C35.0508 60.738 33.1672 61.1632 31.2656 61.0975V61.0975ZM25.9124 57.8025H26.0103L26.0918 58.0875C26.2563 58.5294 26.5397 58.9257 26.9158 59.2396C27.2918 59.5535 27.7482 59.7746 28.2424 59.8825C30.8815 60.6226 33.7302 60.3904 36.1866 59.235C36.4885 59.0935 36.7429 58.8792 36.9225 58.615C37.1021 58.3507 37.2001 58.0466 37.2061 57.735C37.4902 55.2637 37.5402 52.7743 37.3556 50.295L37.1245 50.235L38.0625 48.5125L38.174 49.67C41.8997 50.4275 45.7513 50.5023 49.5084 49.89L50.0005 49.83V50.285C50.0005 51.1525 50.0168 51.77 50.0359 52.365C50.0549 52.96 50.0685 53.5475 50.0712 54.3825C50.1392 54.53 50.199 54.6725 50.2588 54.8125C50.3546 55.0744 50.4813 55.3259 50.6367 55.5625C51.0175 56.0988 51.5972 56.4898 52.268 56.6625C52.4626 56.6896 52.6606 56.6896 52.8552 56.6625C53.0753 56.6385 53.2969 56.6277 53.5186 56.63H53.6817L53.8013 56.7325C53.9482 56.8575 54.095 56.9825 54.2418 57.1325C54.5908 57.5086 55.0155 57.8192 55.4924 58.0475C56.6868 58.476 57.9717 58.6483 59.2494 58.5512C60.5271 58.4542 61.7639 58.0904 62.8656 57.4875C63.9205 56.8025 63.9069 55.8625 63.8906 54.67V54.4525C63.8906 53.2025 63.8417 51.9525 63.8009 50.72C63.7221 48.2525 63.6405 45.7025 63.8009 43.2V43.035L63.9368 42.925C65.5393 40.8522 66.5611 38.4479 66.9116 35.9252C67.262 33.4025 66.9304 30.8392 65.946 28.4625C65.8171 28.2295 65.7027 27.99 65.6034 27.745C65.494 27.4232 65.3083 27.1278 65.0597 26.88L64.4045 26.2325L65.3642 26.2075C67.1422 26.1625 68.5941 26.185 70.0024 26.2075C71.4107 26.23 72.8435 26.2525 74.5998 26.2075H74.7276L74.8363 26.27C75.5451 26.6232 76.3119 26.8672 77.1065 26.9925C77.3294 27.04 77.5496 27.085 77.7644 27.135C78.122 27.0328 78.4367 26.8318 78.6657 26.5594C78.8948 26.287 79.0272 25.9564 79.0449 25.6125C79.0967 24.9034 79.0437 24.191 78.8872 23.495C78.8492 23.3425 78.7758 23.0575 77.7562 23.2025C77.3834 23.2698 77.0287 23.4041 76.7122 23.5975L76.5573 23.6775C76.0135 23.965 75.3855 24.3125 74.8417 24.625L74.7656 24.675H74.6487C70.771 24.8209 66.8874 24.7566 63.0179 24.4825H62.9037L62.8031 24.4175C59.0474 22.153 54.8357 20.6045 50.4175 19.8638C45.9992 19.123 41.4642 19.205 37.081 20.105L36.8092 20.15L36.6487 19.95C34.6178 17.4 30.3032 19.3825 27.1522 20.83C26.3179 21.2403 25.4551 21.5994 24.5693 21.905L24.4823 21.93H24.3926C20.7564 21.6 17.0864 21.7991 13.5176 22.52C10.4699 23.18 10.2551 23.52 9.31172 26.455C6.57818 35.4675 5.65683 44.8632 6.59297 54.18C6.5988 54.9623 6.8417 55.7276 7.29441 56.39C7.61446 56.8288 8.02868 57.2029 8.51163 57.4892C8.99458 57.7755 9.53608 57.9681 10.1029 58.055C10.3152 58.0677 10.5278 58.0338 10.7231 57.956C10.9183 57.8781 11.0906 57.7587 11.2257 57.6075C11.4302 57.4469 11.584 57.2387 11.6711 57.0048C11.7581 56.7708 11.7752 56.5196 11.7205 56.2775C11.7205 56.155 11.7042 56.0275 11.7015 55.8675C11.6599 54.9323 11.5692 53.9996 11.4296 53.0725C11.2705 52.0432 11.1915 51.0047 11.1931 49.965C11.1533 48.5228 11.3842 47.0851 11.8755 45.715C12.4408 44.1111 13.6452 42.7634 15.2467 41.9425C15.8143 41.5759 16.4799 41.3588 17.1718 41.3148C17.8637 41.2707 18.5556 41.4013 19.1726 41.6925C22.4977 43.525 22.4351 51.4175 22.4079 54.7875V55.205C22.723 55.6399 23.1401 56.0045 23.6284 56.2718C24.1168 56.5392 24.664 56.7026 25.23 56.75C25.3027 56.7426 25.3763 56.7487 25.4464 56.768C25.5165 56.7874 25.5816 56.8195 25.6378 56.8625C25.7362 56.964 25.811 57.0828 25.8578 57.2117C25.9045 57.3407 25.9222 57.4771 25.9097 57.6125C25.905 57.6758 25.906 57.7393 25.9124 57.8025V57.8025Z" fill="#373435"/>
<path d="M50.4926 49.865C51.3651 49.7876 52.2268 49.6293 53.0646 49.3925C53.4854 51.6616 53.6104 53.9687 53.437 56.265C52.8022 56.3018 52.1698 56.1638 51.6207 55.8685C51.0715 55.5733 50.6305 55.1343 50.354 54.6075C50.2136 53.0267 50.2601 51.4366 50.4926 49.865V49.865Z" fill="#6978AB"/>
<path d="M53.3473 56.665C52.6478 56.6869 51.9564 56.5216 51.357 56.1892C50.7576 55.8569 50.276 55.3717 49.9706 54.7925L49.9298 54.7225V54.6425C49.7878 53.0325 49.8352 51.4131 50.0712 49.8125L50.1147 49.5025L50.4518 49.4675C51.2954 49.3921 52.1287 49.2397 52.9395 49.0125L53.3854 48.88L53.4941 49.3C53.9031 51.3472 54.0373 53.4328 53.8938 55.51L53.872 56.6575H53.4533L53.3473 56.665ZM50.7808 54.49C50.9933 54.875 51.3105 55.2029 51.7017 55.4416C52.0928 55.6804 52.5446 55.8219 53.0129 55.8525V55.4925C53.1299 53.6239 53.0388 51.7491 52.741 49.8975C52.1309 50.045 51.5105 50.1536 50.8841 50.2225C50.6944 51.6416 50.6588 53.0745 50.7781 54.5L50.7808 54.49Z" fill="#373435"/>
<path d="M11.0164 56.7075C10.4047 53.0225 9.78206 46.52 12.6476 43.42C12.8744 43.1391 13.1195 42.8711 13.3817 42.6175C17.903 38.7025 21.8424 42.07 22.9109 46.405C23.1374 49.1458 23.1837 51.8966 23.0496 54.6425C23.3167 55.1202 23.7289 55.5162 24.2361 55.7825C24.7434 56.0488 25.3239 56.1738 25.907 56.1425C26.3229 56.9325 26.2115 57.52 26.6845 58.0425C27.5824 58.9693 28.7601 59.6292 30.0674 59.9382C31.3748 60.2472 32.7525 60.1912 34.0252 59.7775C34.8767 59.4455 35.7056 59.0665 36.5074 58.6425C37.1565 55.2891 37.064 51.8498 36.2355 48.53C36.2355 48.07 36.0697 47.765 36.0697 47.305C36.3807 47.346 36.6734 47.4654 36.9152 47.65C36.3714 49.485 43.8643 50.7475 52.6051 48.53C52.703 48.21 52.5344 47.815 52.7438 47.7C52.879 47.6222 53.0311 47.5726 53.1895 47.5549C53.3478 47.5372 53.5084 47.5517 53.66 47.5975C53.7008 48.185 53.7143 48.7575 53.7578 49.3475C54.4357 49.4063 55.1176 49.4146 55.7969 49.3725C55.3509 49.7413 54.7648 49.9336 54.1657 49.9075C54.3179 49.9075 54.0814 50.175 54.22 50.2C54.6224 50.29 55.3864 50.15 55.7045 50.2775C55.1091 50.5975 54.443 50.4175 54.0406 50.7775C54.1385 52.7275 54.1928 54.82 54.2771 56.7775C55.5882 57.6926 57.2064 58.1567 58.8508 58.0891C60.4951 58.0215 62.0619 57.4265 63.2789 56.4075C63.5387 52.4906 63.4478 48.5607 63.007 44.6575C62.6889 44.62 62.3681 44.5675 62.05 44.53C67.0172 38.385 67.9742 32.0975 63.8118 26.4225C63.771 26.1725 63.5888 25.9225 63.5399 25.6725C67.1613 25.545 70.8805 25.89 74.5128 25.7625C75.4934 26.1039 76.5051 26.3641 77.536 26.54C78.6045 26.195 78.7975 23.4675 77.7454 23.7725C76.6932 24.0775 76.1141 24.69 74.9858 25.0725C70.8234 25.0725 66.2043 24.92 62.0446 24.92C58.6487 22.4355 54.6268 20.7779 50.3502 20.1002C46.0736 19.4225 41.6802 19.7466 37.5758 21.0425C38.84 23.5455 39.5533 26.2538 39.6746 29.0113C39.7959 31.7689 39.3229 34.5212 38.2827 37.11C38.0462 37.825 34.4547 39.915 37.3937 37.6325C40.3626 35.3125 38.5029 19.195 34.8544 19.1675C30.561 19.2085 26.4394 20.7244 23.2997 23.4175C22.7315 22.8575 22.7723 23.085 23.0278 22.295C19.9226 22.0491 16.7945 22.3029 13.7841 23.045C13.0038 23.0679 12.2492 23.3065 11.6187 23.7297C10.9882 24.153 10.5111 24.7411 10.2497 25.4175C7.50601 34.4337 6.40362 43.8053 6.98719 53.1525C7.13004 54.2733 7.45254 55.3685 7.94419 56.4025C9.57544 58.0475 10.4563 57.575 10.9973 56.7075H11.0164Z" fill="url(#paint0_linear)"/>
<path d="M17.5251 26.055C16.6103 25.712 15.6171 25.584 14.635 25.6825C14.5449 25.6735 14.4542 25.6935 14.3784 25.739C14.3025 25.7846 14.2462 25.853 14.2191 25.9325C14.1825 25.9901 14.1589 26.0538 14.1496 26.12C14.1402 26.1861 14.1454 26.2532 14.1647 26.3175C14.249 26.535 14.2626 26.5225 14.4692 26.5675C14.7428 26.605 15.0223 26.5828 15.2848 26.5025C15.5952 26.3521 15.9376 26.2662 16.288 26.2506C16.6385 26.2351 16.9883 26.2903 17.313 26.4125C17.6175 26.4 17.6474 26.285 17.5495 26.065L17.5251 26.055Z" fill="#373435"/>
<path d="M14.6976 26.9775C14.5898 26.9779 14.4823 26.9678 14.3768 26.9475H14.3414C14.1975 26.934 14.0622 26.878 13.9558 26.7879C13.8495 26.6977 13.7777 26.5783 13.7514 26.4475C13.7132 26.33 13.7009 26.2066 13.7154 26.0846C13.7298 25.9627 13.7708 25.8447 13.8357 25.7375C13.8988 25.5993 14.0063 25.4821 14.1438 25.4017C14.2813 25.3213 14.4423 25.2814 14.6051 25.2875C15.6201 25.1888 16.6459 25.3166 17.5958 25.66H17.8187L17.9302 25.91C17.9926 26.0043 18.0252 26.1128 18.0242 26.2232C18.0232 26.3336 17.9886 26.4415 17.9245 26.5349C17.8603 26.6282 17.769 26.7031 17.661 26.7513C17.553 26.7995 17.4324 26.819 17.313 26.8075H17.2478L17.1743 26.7875C16.9066 26.6809 16.6164 26.6305 16.3248 26.64C16.0332 26.6495 15.7476 26.7187 15.4887 26.8425L15.4398 26.87L15.3854 26.8825C15.1616 26.9414 14.9304 26.9734 14.6976 26.9775V26.9775ZM14.5779 26.17C14.761 26.1874 14.946 26.1703 15.1217 26.12L15.2685 26.0525C15.0782 26.0525 14.8852 26.0525 14.6894 26.08H14.6187L14.6024 26.11C14.5906 26.1286 14.5823 26.1489 14.5779 26.17V26.17Z" fill="#373435"/>
<path d="M15.2848 29.2175C15.4091 28.9798 15.6051 28.7801 15.8496 28.6422C16.094 28.5043 16.3765 28.4341 16.6632 28.44C16.7176 28.12 16.6632 27.94 16.2173 27.94C15.5841 28.2352 15.0433 28.674 14.6459 29.215C14.4178 29.6853 14.345 30.2069 14.4366 30.715C14.4863 31.0623 14.6814 31.378 14.9803 31.595C15.2898 31.7732 15.6507 31.8611 16.0156 31.8473C16.3805 31.8334 16.7323 31.7185 17.0248 31.5175C17.9981 30.995 18.9714 29.5025 17.2613 28.94C16.9186 28.8785 16.566 28.8807 16.2243 28.9464C15.8825 29.0121 15.5584 29.1399 15.2712 29.3225C15.244 29.335 15.2304 29.285 15.2712 29.22L15.2848 29.2175Z" fill="#373435"/>
<path d="M15.8122 32.265C15.4082 32.2723 15.0147 32.1464 14.703 31.91C14.3183 31.6258 14.0688 31.2152 14.007 30.765C13.8962 30.1699 13.9913 29.5578 14.2789 29.015C14.7139 28.4146 15.3081 27.9259 16.0053 27.595L16.1004 27.5425H16.2037C16.3371 27.5307 16.4717 27.5458 16.598 27.5868C16.7243 27.6279 16.8394 27.6938 16.9351 27.78C17.0173 27.8825 17.074 28.0003 17.1012 28.1252C17.1285 28.25 17.1256 28.3788 17.0928 28.5025C17.462 28.5538 17.8058 28.7062 18.0793 28.9399C18.3529 29.1736 18.5434 29.4777 18.6262 29.8125C18.6105 30.2363 18.4748 30.649 18.2326 31.0098C17.9904 31.3707 17.65 31.6672 17.245 31.87C16.8132 32.1146 16.3192 32.2508 15.8122 32.265V32.265ZM14.9341 29.6C14.8335 29.9523 14.8113 30.3196 14.8688 30.68C14.907 30.9261 15.0485 31.1487 15.2631 31.3C15.7878 31.7025 16.6387 31.2725 16.8046 31.1825C17.0662 31.054 17.2899 30.869 17.4566 30.6434C17.6233 30.4179 17.728 30.1585 17.7616 29.8875C17.7371 29.6375 17.5196 29.4575 17.1172 29.325C16.5517 29.2465 15.9748 29.37 15.505 29.67L15.4697 29.6875L15.1788 29.8225L14.9395 29.6H14.9341Z" fill="#373435"/>
<path d="M16.0406 30.9525C16.0463 31.0436 16.0655 31.1336 16.0977 31.22C16.1117 31.2603 16.1308 31.2989 16.1548 31.335C16.0755 31.3834 15.9845 31.4133 15.8897 31.422C15.7949 31.4307 15.6993 31.418 15.6111 31.385C15.0102 31.135 15.0537 30.36 15.3609 29.94C15.5219 29.7234 15.7359 29.5445 15.9856 29.4177C16.2354 29.2909 16.514 29.2198 16.7992 29.21C17.12 29.3625 17.2178 29.505 17.0493 29.5425C16.9541 29.5591 16.8623 29.5895 16.7774 29.6325C16.7129 29.6591 16.6552 29.6981 16.6083 29.7468C16.5614 29.7955 16.5264 29.8528 16.5055 29.915C16.6442 29.9525 16.7149 29.915 16.8399 29.965V30.3625C16.7063 30.3008 16.5537 30.2831 16.4077 30.3125C16.1358 30.39 16.0298 30.7475 16.0298 30.965L16.0406 30.9525Z" fill="#FEFEFE"/>
<path d="M17.1907 41.1475C17.9609 40.9957 18.6906 40.7049 19.3377 40.2919C19.9848 39.879 20.5364 39.352 20.9605 38.7416C21.3845 38.1313 21.6727 37.4496 21.8082 36.7361C21.9437 36.0226 21.9239 35.2914 21.75 34.585C21.2633 34.5757 20.7864 34.4573 20.3607 34.24C20.3335 34.075 20.3199 33.9075 20.29 33.74C21.4156 34.24 23.0088 34.39 22.8022 32.8075C22.9544 32.77 23.1909 32.7575 23.3459 32.7175C23.2915 33.8275 23.074 33.93 22.3318 34.4025C22.5453 35.6127 22.4339 36.8525 22.0075 38.0141C21.581 39.1757 20.8524 40.2239 19.8849 41.0675C19.8273 41.4147 19.8609 41.7696 19.9828 42.1025C19.6269 41.7606 19.1902 41.4986 18.7064 41.3369C18.2227 41.1752 17.705 41.1181 17.1934 41.17L17.1907 41.1475Z" fill="#373435"/>
<path d="M20.7495 43.4775L19.662 42.3725C19.3463 42.0736 18.9597 41.8458 18.5324 41.707C18.1051 41.5682 17.6487 41.5222 17.1988 41.5725H16.7584V40.8725L17.0656 40.76C18.4654 40.4961 19.6982 39.7408 20.5023 38.6546C21.3064 37.5684 21.6184 36.2368 21.3721 34.9425C20.9313 34.9123 20.5045 34.7863 20.1269 34.575L19.9583 34.4775L19.9284 34.3L19.8904 34.0375L19.8578 33.8025L19.7327 33.0525L20.4749 33.3825C20.7242 33.5298 21.0061 33.6241 21.3 33.6587C21.5939 33.6933 21.8925 33.6673 22.1741 33.5825C22.3481 33.47 22.4134 33.225 22.3672 32.855L22.3264 32.515L22.6853 32.425C22.7918 32.4006 22.8998 32.3823 23.0088 32.37C23.0819 32.3621 23.1546 32.3504 23.2263 32.335L23.8027 32.19L23.7755 32.7375C23.7184 33.8775 23.4465 34.165 22.794 34.5925C22.9639 35.8078 22.8252 37.0427 22.3889 38.2004C21.9526 39.3581 21.2304 40.4071 20.2792 41.265C20.2797 41.478 20.3117 41.6899 20.3743 41.895L20.7495 43.4775ZM18.8464 40.9575C19.044 41.0156 19.2352 41.091 19.4173 41.1825C19.4255 41.0974 19.4447 41.0135 19.4744 40.9325L19.5043 40.8525L19.5668 40.79C19.7988 40.5617 20.0136 40.3325 20.2112 40.1025C19.7935 40.4348 19.3355 40.7217 18.8464 40.9575Z" fill="#373435"/>
<path d="M60.2393 58.0325C60.1714 57.09 60.0463 56.2625 60.0164 55.3175C59.9484 53.1525 58.1595 52.68 58.0616 54.845C58.0073 55.98 58.0616 57.05 58.0616 58.12C58.7874 58.2113 59.525 58.1817 60.2393 58.0325V58.0325Z" fill="#8093D0"/>
<path d="M59.1029 58.3C58.831 58.3 58.5755 58.285 58.3172 58.27L57.9094 58.25V58.125V57.0625C57.9094 56.3475 57.8849 55.6075 57.9094 54.845C57.961 53.7125 58.4531 53.31 58.8908 53.31C59.4699 53.31 60.1061 54.0175 60.1496 55.31C60.1659 55.8875 60.2203 56.415 60.2747 56.9725C60.31 57.3125 60.3427 57.6575 60.3698 58.0175V58.125L60.2584 58.155C59.8826 58.2532 59.4936 58.302 59.1029 58.3V58.3ZM58.2084 58H58.3389C58.9221 58.0631 59.5125 58.0386 60.0871 57.9275C60.0626 57.6075 60.03 57.3 60.0001 56.9975C59.943 56.435 59.8913 55.905 59.8723 55.3175C59.837 54.24 59.3286 53.5675 58.9017 53.5675C58.6081 53.5675 58.2519 53.9025 58.2084 54.8475C58.1704 55.5975 58.184 56.3475 58.2084 57.05C58.203 57.37 58.2084 57.6825 58.2084 58Z" fill="#373435"/>
<path d="M58.0942 58.1425C57.8969 57.055 57.8231 55.9516 57.874 54.85C58.0263 52.85 55.9709 50.7425 55.8323 54.455C55.7819 55.54 55.8283 56.627 55.9709 57.705C56.6653 57.9012 57.3752 58.0475 58.0942 58.1425V58.1425Z" fill="#8093D0"/>
<path d="M58.2601 58.3025L58.0725 58.275C57.3452 58.1812 56.627 58.0349 55.9247 57.8375L55.8377 57.81V57.7275C55.6938 56.6412 55.6474 55.5458 55.699 54.4525C55.7425 53.255 55.9709 52.545 56.4141 52.34C56.5152 52.2936 56.6286 52.2743 56.7412 52.2845C56.8537 52.2947 56.9608 52.3338 57.0502 52.3975C57.4059 52.7128 57.6791 53.0983 57.8491 53.5249C58.0191 53.9515 58.0816 54.408 58.0317 54.86C57.9704 55.8255 58.0205 56.7942 58.1813 57.75L58.2601 58.3025ZM56.1014 57.61C56.6994 57.7733 57.309 57.8986 57.9257 57.985L57.8985 57.7775C57.7305 56.8073 57.6731 55.8236 57.7272 54.8425C57.7733 54.4372 57.7209 54.0276 57.5737 53.6432C57.4265 53.2588 57.1883 52.9093 56.8762 52.62C56.8296 52.5834 56.7727 52.5598 56.7121 52.5518C56.6514 52.5439 56.5896 52.5519 56.5337 52.575C56.3842 52.645 56.0307 52.9725 55.9736 54.46C55.9249 55.5114 55.9676 56.5648 56.1014 57.61V57.61Z" fill="#373435"/>
<path d="M55.9736 57.875L55.6827 53.625C55.4734 50.4525 54.0868 50.8225 53.9753 53.435C53.921 54.67 54.0297 55.345 53.9047 56.5825C54.5572 56.99 55.2368 57.7925 55.9736 57.8575V57.875Z" fill="#8093D0"/>
<path d="M55.96 58C55.3783 57.8693 54.8527 57.581 54.4511 57.1725C54.253 57.0046 54.0442 56.8476 53.8258 56.7025L53.7551 56.6575V56.58C53.812 55.9815 53.831 55.3805 53.8122 54.78V53.44C53.8693 52.1075 54.2527 51.2425 54.7883 51.2375C55.332 51.2375 55.7072 52.13 55.8051 53.6275L56.096 57.8775H55.9492L55.96 58ZM54.0569 56.5275C54.2527 56.6575 54.4484 56.8175 54.6414 56.9725C54.9741 57.2883 55.3739 57.5376 55.8159 57.705L55.5441 53.645C55.4408 52.0725 55.052 51.505 54.8154 51.505C54.5708 51.505 54.182 52.1275 54.1276 53.4525C54.1031 53.9525 54.1113 54.38 54.1276 54.78C54.1383 55.3616 54.1147 55.9433 54.0569 56.5225V56.5275Z" fill="#373435"/>
<path d="M32.258 60.07C32.2948 59.075 32.2393 58.0788 32.0921 57.0925C31.5103 54.7925 30.7762 54.51 29.9171 56.21V60.03C30.6942 60.1278 31.4814 60.1362 32.2607 60.055L32.258 60.07Z" fill="#8093D0"/>
<path d="M31.3798 60.25C30.9285 60.25 30.4772 60.2125 30.034 60.175L29.7622 60.1525V56.1525C30.1781 55.33 30.5778 54.9475 30.9802 54.9875C31.475 55.035 31.8665 55.6925 32.2117 57.06L32.2389 57.2775C32.3729 58.2037 32.4211 59.1388 32.383 60.0725H32.2417L32.2607 60.1875C31.9693 60.2295 31.6748 60.2504 31.3798 60.25V60.25ZM30.0585 59.91C30.7411 59.9905 31.4314 60.0014 32.1166 59.9425C32.1436 59.0628 32.0945 58.1825 31.9698 57.31L31.9453 57.1075C31.5484 55.54 31.1623 55.2725 30.9693 55.255C30.8197 55.255 30.5125 55.3525 30.0585 56.2425V59.91Z" fill="#373435"/>
<path d="M28.0031 59.44C28.0167 57.975 28.0303 57.005 28.0303 55.54C28.6121 53.385 29.2075 53.6025 29.7893 56.19C29.8029 57.58 29.8165 58.485 29.8165 59.8725C29.1801 59.8496 28.5563 59.7022 27.9868 59.44H28.0031Z" fill="#8093D0"/>
<path d="M29.9525 60.0225L29.7078 59.9975C29.0796 59.9695 28.465 59.8187 27.9052 59.555L27.4295 59.305H27.8482V58.555C27.8482 57.53 27.8672 56.6825 27.8672 55.5275V55.495C28.1608 54.41 28.449 53.925 28.8052 53.925C29.077 53.925 29.4604 54.1875 29.8927 56.15V57.015C29.8927 57.9775 29.9117 58.765 29.9117 59.8625L29.9525 60.0225ZM28.1391 59.3675C28.618 59.5747 29.1358 59.6953 29.6643 59.7225C29.6643 58.7075 29.6643 57.945 29.6453 57.0275V56.19C29.2184 54.3075 28.8922 54.205 28.8296 54.205C28.7671 54.205 28.5333 54.235 28.1744 55.555C28.1744 56.7025 28.1744 57.555 28.1554 58.57L28.1391 59.3675Z" fill="#373435"/>
<path d="M25.8281 56.5575C25.9124 55.3325 26.1897 54.095 26.2713 52.87C25.7275 50.445 25.1348 50.0125 24.5123 51.595C24.4851 53.165 24.4715 54.7475 24.4443 56.3175C24.8556 56.5587 25.3509 56.648 25.8308 56.5675L25.8281 56.5575Z" fill="#8093D0"/>
<path d="M25.4828 56.75C25.1508 56.7342 24.8272 56.6487 24.5367 56.5L24.3083 56.405V56.3175C24.3228 55.5325 24.3346 54.7458 24.3437 53.9575C24.3527 53.1692 24.3645 52.3817 24.379 51.595V51.5525C24.6509 50.835 24.9391 50.5125 25.2653 50.5325C25.5916 50.5525 25.9695 50.835 26.4181 52.8475V52.8825C26.3773 53.5 26.2849 54.1325 26.1952 54.735C26.1054 55.3375 26.0157 55.96 25.9749 56.565V56.68L25.8607 56.7025C25.7369 56.7303 25.6103 56.7462 25.4828 56.75V56.75ZM24.602 56.25L24.6563 56.2725C24.971 56.4453 25.3391 56.5174 25.7031 56.4775C25.7466 55.89 25.8336 55.2925 25.9206 54.715C26.0076 54.1375 26.0973 53.5 26.1408 52.8975C25.7139 50.99 25.3551 50.82 25.2545 50.8125C25.2001 50.8125 24.9826 50.855 24.6699 51.6375C24.6554 52.4142 24.6437 53.1933 24.6346 53.975C24.6255 54.7567 24.6147 55.5083 24.602 56.23V56.25Z" fill="#373435"/>
<path d="M51.7133 56.17C51.8248 54.8675 51.6726 53.7825 51.7133 52.5075C51.7541 50.9625 53.4153 51.41 53.486 52.8275C53.5567 54.245 53.6382 54.9725 53.7225 56.3875C53.0493 56.4923 52.3575 56.4168 51.7297 56.17H51.7133Z" fill="#8093D0"/>
<path d="M52.915 56.545C52.4899 56.5587 52.0679 56.4727 51.6889 56.295H51.5692V56.1525C51.6179 55.4567 51.6233 54.7589 51.5856 54.0625C51.5692 53.5625 51.5502 53.045 51.5692 52.4975C51.591 51.6925 52.0233 51.4025 52.4202 51.4C52.964 51.4 53.5811 51.9375 53.6219 52.815C53.6627 53.5375 53.7035 54.065 53.7415 54.6175C53.7796 55.17 53.8177 55.675 53.8584 56.3675V56.5025L53.437 56.5175C53.2638 56.5367 53.0895 56.5459 52.915 56.545ZM51.8629 56.085C52.3604 56.2742 52.9043 56.3364 53.437 56.265H53.5675C53.5346 55.7248 53.4984 55.1848 53.4588 54.645C53.4207 54.1025 53.3827 53.5625 53.3392 52.8375C53.2957 52.1125 52.8416 51.675 52.4257 51.675C52.0858 51.675 51.8819 51.9925 51.8602 52.515C51.8384 53.0375 51.8602 53.5675 51.8765 54.065C51.91 54.7381 51.9055 55.4123 51.8629 56.085V56.085Z" fill="#373435"/>
<path d="M51.6263 56.2175C51.5856 55.2625 51.5992 54.115 51.5584 53.16C51.6562 51.8475 50.6721 49.91 50.286 52.065C50.1634 52.863 50.0899 53.6668 50.0658 54.4725C50.5138 55.1057 51.0373 55.691 51.6263 56.2175V56.2175Z" fill="#B9C5EA"/>
<path d="M51.7813 56.4875L51.5393 56.3275C51.0609 55.9395 50.6428 55.4928 50.2969 55C50.1839 54.8529 50.0679 54.7079 49.9489 54.565L49.9135 54.525V54.475C49.9326 54.225 49.9462 53.975 49.957 53.775C49.9775 53.1988 50.0374 52.6243 50.1365 52.055C50.1854 51.775 50.3377 50.925 50.8243 50.98C51.3681 51.04 51.7568 52.375 51.697 53.18C51.7188 53.645 51.7242 54.18 51.7324 54.6975C51.7405 55.215 51.746 55.7475 51.7677 56.2225L51.7813 56.4875ZM50.2099 54.4325C50.305 54.545 50.4138 54.6825 50.5334 54.8375C50.8151 55.2201 51.1287 55.5821 51.4714 55.92C51.4714 55.525 51.4523 55.1025 51.4469 54.6925C51.4469 54.1775 51.4333 53.6425 51.4116 53.1675C51.4795 52.2375 51.0309 51.26 50.7944 51.235C50.7428 51.22 50.5552 51.37 50.4247 52.0875C50.3272 52.6469 50.2682 53.2113 50.2479 53.7775L50.2099 54.43V54.4325Z" fill="#373435"/>
<path d="M39.2669 38.6475C39.9738 35.5475 40.6671 32.4475 41.3739 29.335C41.4854 28.6075 41.692 27.9575 42.524 27.8925H43.5353C44.1443 27.8925 44.4923 28.225 44.5467 28.8925L44.3401 30.27C44.3673 30.8325 44.7425 31.15 45.4901 31.2025C46.5015 31.24 47.5292 31.2925 48.5406 31.33C50.0658 31.42 51.0908 32.02 50.9874 33.7675L50.0304 38.385C50.0131 38.7417 49.8815 39.0858 49.6522 39.374C49.423 39.6622 49.1062 39.8817 48.7417 40.005C48.285 39.98 47.7712 40.03 47.3144 40.005C46.5233 40.0425 46.0665 39.775 46.3574 38.8175C46.6483 37.605 47.0099 36.0875 47.3144 34.875C47.4259 33.4325 46.8441 33.3575 46.2269 33.255C45.6995 33.19 45.1883 33.255 44.6609 33.19C43.8833 33.2925 43.5924 33.98 43.3722 34.7475C43.0405 36.035 42.6925 37.325 42.3608 38.625C42.2086 39.3275 42.0427 39.785 41.4745 40.0025H39.7835C39.1455 39.8742 38.9642 39.415 39.2397 38.625L39.2669 38.6475Z" fill="#373435"/>
<path d="M47.6026 40.275H47.3062C47.1021 40.3066 46.8926 40.292 46.696 40.2323C46.4993 40.1726 46.3215 40.0697 46.178 39.9325C46.0576 39.758 45.9851 39.5592 45.9666 39.3533C45.9481 39.1473 45.9843 38.9403 46.0719 38.75L46.2378 38.055C46.4906 37 46.7815 35.8225 47.0208 34.84C47.1051 33.6775 46.7652 33.62 46.2052 33.525C45.6995 33.4625 45.2128 33.525 44.6691 33.465C44.1253 33.555 43.8779 34.0525 43.655 34.82L43.2037 36.5425L42.6436 38.6925C42.4587 39.4125 42.3092 39.9775 41.586 40.255L41.5316 40.275H39.7209C39.5671 40.2519 39.4205 40.1986 39.2911 40.1188C39.1616 40.039 39.0523 39.9345 38.9706 39.8125C38.8755 39.6157 38.8264 39.4028 38.8264 39.1875C38.8264 38.9722 38.8755 38.7593 38.9706 38.5625L39.0603 38.3125L40.1478 33.465L41.0858 29.3125C41.1619 28.8125 41.3223 27.75 42.4968 27.66H43.5326C43.9785 27.66 44.7425 27.82 44.8322 28.91V28.9375L44.6228 30.3175C44.6419 30.6 44.7697 30.9225 45.5037 30.9725L47.0289 31.035L48.5433 31.0975C48.9303 31.0642 49.3205 31.1136 49.6833 31.2418C50.0462 31.37 50.3719 31.5736 50.6351 31.8367C50.8982 32.0997 51.0918 32.4152 51.2005 32.7583C51.3093 33.1015 51.3303 33.4631 51.262 33.815V33.85L50.305 38.47C50.2782 38.8726 50.1243 39.2592 49.862 39.5824C49.5998 39.9057 49.2407 40.1516 48.8287 40.29L48.7744 40.3075H48.0267C47.8881 40.27 47.744 40.275 47.6026 40.275V40.275ZM47.309 39.735H48.6928C48.9943 39.6199 49.2534 39.4273 49.439 39.1804C49.6246 38.9334 49.729 38.6425 49.7395 38.3425L50.6938 33.7325C50.7781 32.3275 50.1283 31.6875 48.5188 31.595L47.0072 31.5325L45.4765 31.4675C44.2803 31.385 44.0682 30.69 44.0492 30.2825V30.25L44.2558 28.8775C44.1933 28.2375 43.8371 28.155 43.5353 28.155H42.524C42.0237 28.195 41.7899 28.5125 41.6594 29.3675L40.716 33.5375C40.3281 35.2592 39.9384 36.9792 39.5469 38.6975L39.4382 39.18L39.4056 39.15C39.385 39.2788 39.4068 39.4102 39.4681 39.5275C39.5069 39.5811 39.5574 39.6268 39.6164 39.6617C39.6753 39.6965 39.7415 39.7198 39.8107 39.73H41.4066C41.7953 39.56 41.9286 39.23 42.0699 38.565L42.6327 36.4025L43.084 34.675C43.2499 34.105 43.5517 33.055 44.6147 32.925H44.6935C45.1883 32.985 45.7049 32.925 46.2595 32.99H46.2976C47.0752 33.12 47.7086 33.3525 47.5917 34.8875V34.93C47.3443 35.915 47.048 37.1 46.806 38.16L46.6347 38.87C46.526 39.2275 46.526 39.4725 46.6347 39.5925C46.7435 39.7125 47.0616 39.745 47.2954 39.735H47.309Z" fill="#FEFEFE"/>
<path d="M26.1652 42.235C26.8585 38.93 27.5654 35.625 28.2614 32.3325C28.2524 32.1829 28.2777 32.0332 28.3359 31.8933C28.394 31.7533 28.4836 31.6262 28.5988 31.5203C28.7141 31.4143 28.8523 31.332 29.0045 31.2785C29.1567 31.225 29.3194 31.2017 29.4821 31.21H35.8658C36.474 31.1935 37.0756 31.3298 37.6059 31.6042C38.1362 31.8786 38.5751 32.2808 38.8754 32.7675C39.3028 33.4791 39.4821 34.2941 39.3892 35.1025C39.2526 36.4905 38.5839 37.7886 37.5024 38.765C36.6169 39.4526 35.532 39.8871 34.3813 40.015C33.2938 40.04 32.2063 40.0525 31.1188 40.08C30.4935 40.03 29.8709 40.1825 29.7187 40.6425C29.5256 41.2675 29.387 41.8925 29.1912 42.505C29.1233 42.6429 29.0238 42.7658 28.8994 42.865C28.7751 42.9643 28.6288 43.0376 28.4707 43.08C27.8454 43.0925 27.2092 43.0925 26.5839 43.105C25.9151 43.115 26.0538 42.75 26.1652 42.235V42.235ZM30.6186 36.57C30.798 35.7025 31.0209 34.72 31.1868 33.955C31.2754 33.7258 31.442 33.5291 31.662 33.3939C31.8819 33.2588 32.1433 33.1926 32.4075 33.205C33.0657 33.1621 33.7265 33.2402 34.3514 33.435C34.625 33.5366 34.872 33.6904 35.076 33.8864C35.2801 34.0824 35.4365 34.316 35.535 34.5717C35.6334 34.8275 35.6716 35.0996 35.6471 35.3699C35.6226 35.6403 35.5359 35.9028 35.3927 36.14C35.1509 36.5576 34.8218 36.9271 34.4243 37.2274C34.0268 37.5278 33.5687 37.7529 33.0763 37.89C32.6242 37.9986 32.1563 38.0416 31.6897 38.0175C30.4962 37.9025 30.3983 37.61 30.6022 36.5625L30.6186 36.57Z" fill="#373435"/>
<path d="M26.5513 43.37C26.4355 43.3807 26.3186 43.3672 26.2094 43.3304C26.1001 43.2936 26.0014 43.2345 25.9206 43.1575C25.7139 42.93 25.7846 42.6225 25.858 42.2975L25.8825 42.185C26.2649 40.365 26.6501 38.545 27.038 36.725L27.9705 32.32C27.9588 32.1476 27.9861 31.9748 28.0507 31.8126C28.1153 31.6504 28.2157 31.5022 28.3457 31.3775C28.4934 31.235 28.6723 31.1228 28.8704 31.0482C29.0686 30.9737 29.2817 30.9385 29.4957 30.945H35.8658C36.527 30.9264 37.1812 31.0754 37.7566 31.3757C38.332 31.676 38.8065 32.1159 39.1283 32.6475C39.5791 33.4024 39.7688 34.2658 39.672 35.1225C39.5303 36.5733 38.8327 37.9307 37.7036 38.9525L37.671 38.98C36.7445 39.6969 35.6107 40.1496 34.4085 40.2825C33.8484 40.2975 33.302 40.305 32.7582 40.315L31.127 40.3475H31.0943C30.6566 40.3125 30.1047 40.3875 30.0068 40.7225C29.909 41.0575 29.8301 41.3325 29.735 41.64C29.6398 41.9475 29.5664 42.265 29.4631 42.5825C29.3864 42.7608 29.2668 42.9209 29.1133 43.0508C28.9598 43.1807 28.7764 43.277 28.5768 43.3325L28.5251 43.3525H28.4707L27.5328 43.365L26.5839 43.3775L26.5513 43.37ZM26.3692 42.82C26.4365 42.8366 26.5063 42.8425 26.5758 42.8375L27.5328 42.825H28.4082C28.7018 42.705 28.8704 42.575 28.9166 42.44C29.0118 42.1325 29.0933 41.8275 29.1885 41.52C29.2837 41.2125 29.3571 40.895 29.4604 40.58C29.6371 40.045 30.276 39.7575 31.1487 39.83L32.7637 39.7975L34.3949 39.765C35.4774 39.6384 36.497 39.2269 37.3312 38.58C38.3557 37.6504 38.9903 36.4179 39.1228 35.1C39.2113 34.3392 39.0423 33.5717 38.6389 32.9025C38.3569 32.4613 37.9514 32.0977 37.4646 31.8497C36.9778 31.6017 36.4275 31.4783 35.8712 31.4925H29.4821C29.3491 31.4876 29.2164 31.5089 29.0931 31.555C28.9698 31.6012 28.8586 31.6711 28.7671 31.76C28.6884 31.834 28.6282 31.9229 28.5906 32.0204C28.553 32.118 28.539 32.2219 28.5496 32.325V32.4L27.6089 36.8425L26.4534 42.3025L26.4262 42.42C26.3848 42.5549 26.3665 42.6949 26.3719 42.835L26.3692 42.82ZM31.948 38.29H31.6598C31.4304 38.2951 31.2021 38.2582 30.9883 38.1814C30.7745 38.1046 30.5795 37.9893 30.4147 37.8425C30.1727 37.545 30.1944 37.15 30.3195 36.5225L30.4174 36.0225L30.4364 36.04C30.5316 35.5925 30.6349 35.1325 30.73 34.7L30.9285 33.8425C31.0413 33.5647 31.2478 33.3275 31.5179 33.1655C31.788 33.0035 32.1074 32.9254 32.4293 32.9425C33.1158 32.9002 33.8046 32.9852 34.4547 33.1925C34.7418 33.2872 35.0042 33.4359 35.2252 33.6292C35.4461 33.8225 35.6208 34.0561 35.738 34.315C35.8673 34.6267 35.9267 34.9593 35.9127 35.2927C35.8987 35.626 35.8115 35.9534 35.6564 36.255L35.6374 36.2875C35.3779 36.7324 35.0257 37.1259 34.6007 37.4455C34.1757 37.7651 33.6863 38.0045 33.1606 38.15C32.7623 38.2372 32.3547 38.2842 31.9453 38.29H31.948ZM30.8252 37.01C30.7826 37.1778 30.8027 37.3539 30.8823 37.51C30.9774 37.625 31.2439 37.7 31.7197 37.7475C32.1553 37.7674 32.5917 37.726 33.0138 37.625C33.4656 37.4978 33.8857 37.2899 34.2501 37.0132C34.6144 36.7365 34.9158 36.3964 35.1371 36.0125C35.2564 35.7792 35.3239 35.5264 35.3355 35.2688C35.3472 35.0112 35.3029 34.7541 35.2051 34.5125C35.117 34.3213 34.9867 34.1491 34.8224 34.0067C34.6581 33.8642 34.4635 33.7547 34.2508 33.685C33.6616 33.5023 33.0385 33.4301 32.4184 33.4725C32.2127 33.4569 32.0073 33.5051 31.8349 33.6093C31.6624 33.7135 31.5329 33.8677 31.4668 34.0475L31.301 34.7975C31.1705 35.3875 31.0291 36.03 30.9067 36.62L30.8252 37.01Z" fill="#FEFEFE"/>
<path d="M50.4192 42.235C51.1125 38.93 51.8194 35.625 52.5154 32.3325C52.5063 32.1829 52.5317 32.0332 52.5898 31.8933C52.648 31.7533 52.7376 31.6262 52.8528 31.5203C52.968 31.4143 53.1062 31.332 53.2584 31.2785C53.4107 31.225 53.5734 31.2017 53.7361 31.21H60.1197C60.728 31.1935 61.3296 31.3298 61.8599 31.6042C62.3902 31.8786 62.8291 32.2808 63.1294 32.7675C63.5567 33.4791 63.7361 34.2941 63.6432 35.1025C63.5066 36.4905 62.8379 37.7886 61.7564 38.765C60.8708 39.4526 59.786 39.8871 58.6353 40.015C57.5478 40.04 56.4603 40.0525 55.3728 40.08C54.7475 40.03 54.1249 40.1825 53.9726 40.6425C53.7796 41.2675 53.6409 41.8925 53.4452 42.505C53.3773 42.6429 53.2777 42.7658 53.1534 42.865C53.029 42.9643 52.8828 43.0376 52.7247 43.08C52.0994 43.0925 51.4632 43.0925 50.8379 43.105C50.1691 43.115 50.2969 42.75 50.4192 42.235V42.235ZM54.8725 36.57C55.052 35.7025 55.2749 34.72 55.4407 33.955C55.5294 33.7258 55.696 33.5291 55.9159 33.3939C56.1358 33.2588 56.3973 33.1926 56.6615 33.205C57.3196 33.1621 57.9805 33.2402 58.6054 33.435C58.879 33.5366 59.126 33.6904 59.33 33.8864C59.534 34.0824 59.6905 34.316 59.7889 34.5717C59.8874 34.8275 59.9256 35.0996 59.9011 35.3699C59.8765 35.6403 59.7898 35.9028 59.6467 36.14C59.4049 36.5576 59.0758 36.9271 58.6783 37.2274C58.2808 37.5278 57.8227 37.7529 57.3303 37.89C56.8781 37.9986 56.4103 38.0416 55.9437 38.0175C54.7502 37.9025 54.6523 37.61 54.8562 36.5625L54.8725 36.57Z" fill="#373435"/>
<path d="M50.8053 43.37C50.6895 43.3806 50.5727 43.3669 50.4635 43.3301C50.3542 43.2933 50.2555 43.2343 50.1745 43.1575C49.9679 42.93 50.0386 42.6225 50.112 42.2975L50.1365 42.185C50.5171 40.37 50.9004 38.5567 51.2865 36.745L52.2245 32.32C52.2128 32.1476 52.2401 31.9748 52.3047 31.8126C52.3692 31.6504 52.4697 31.5022 52.5997 31.3775C52.7474 31.235 52.9262 31.1228 53.1244 31.0482C53.3226 30.9737 53.5357 30.9385 53.7497 30.945H60.1197C60.781 30.9264 61.4351 31.0754 62.0105 31.3757C62.5859 31.676 63.0605 32.1159 63.3822 32.6475C63.8329 33.4025 64.0226 34.2658 63.926 35.1225C63.784 36.5733 63.0865 37.9306 61.9576 38.9525L61.925 38.98C60.9985 39.6969 59.8647 40.1496 58.6625 40.2825C58.1024 40.2975 57.5559 40.305 57.0122 40.315L55.3809 40.3475H55.3483C54.9079 40.3125 54.3587 40.3875 54.2608 40.7225C54.1629 41.0575 54.0841 41.3325 53.9889 41.6375C53.8938 41.9425 53.8204 42.265 53.7171 42.58C53.6403 42.7583 53.5208 42.9184 53.3673 43.0483C53.2138 43.1782 53.0304 43.2745 52.8307 43.33L52.7791 43.35H52.7247L51.7868 43.3625L50.8379 43.375L50.8053 43.37ZM50.6231 42.82C50.6905 42.836 50.7603 42.8419 50.8297 42.8375L51.7868 42.825H52.6622C52.9558 42.705 53.1244 42.575 53.1706 42.44C53.2657 42.1325 53.35 41.825 53.4425 41.52C53.5349 41.215 53.611 40.8975 53.7143 40.5825C53.8911 40.0475 54.53 39.76 55.4027 39.8325L57.0176 39.8L58.6489 39.7675C59.7313 39.6409 60.751 39.2294 61.5851 38.5825C62.6097 37.6529 63.2443 36.4204 63.3768 35.1025C63.4654 34.3416 63.2964 33.5742 62.8928 32.905C62.6109 32.4638 62.2054 32.1002 61.7186 31.8522C61.2317 31.6042 60.6815 31.4808 60.1252 31.495H53.7361C53.603 31.4897 53.4702 31.5109 53.3469 31.5571C53.2235 31.6032 53.1124 31.6733 53.0211 31.7625C52.9424 31.8365 52.8821 31.9254 52.8446 32.0229C52.807 32.1205 52.793 32.2244 52.8036 32.3275V32.4025L51.8602 36.865L50.7101 42.305L50.6829 42.4225C50.6415 42.5574 50.6232 42.6974 50.6286 42.8375L50.6231 42.82ZM56.202 38.29H55.9138C55.6843 38.2951 55.4561 38.2582 55.2423 38.1814C55.0285 38.1046 54.8335 37.9894 54.6686 37.8425C54.4267 37.545 54.4484 37.15 54.5735 36.5225L54.6713 36.0225L54.6904 36.04C54.7855 35.59 54.8888 35.1275 54.984 34.6925L55.1825 33.84C55.2941 33.5615 55.5004 33.3236 55.7708 33.1615C56.0411 32.9993 56.3611 32.9217 56.6832 32.94C57.3697 32.8985 58.0584 32.9835 58.7087 33.19C58.9958 33.2847 59.2582 33.4334 59.4791 33.6267C59.7001 33.82 59.8748 34.0536 59.9919 34.3125C60.1212 34.6242 60.1807 34.9568 60.1667 35.2902C60.1526 35.6235 60.0655 35.9509 59.9104 36.2525L59.8913 36.285C59.6319 36.7299 59.2796 37.1234 58.8546 37.443C58.4296 37.7626 57.9403 38.002 57.4146 38.1475C57.0172 38.2354 56.6106 38.2832 56.202 38.29V38.29ZM55.0764 37.0125C55.0339 37.1803 55.054 37.3565 55.1335 37.5125C55.2287 37.6275 55.4951 37.7025 55.9709 37.75C56.4065 37.7698 56.8429 37.7285 57.265 37.6275C57.7169 37.5003 58.137 37.2924 58.5013 37.0157C58.8657 36.739 59.1671 36.3989 59.3884 36.015C59.5077 35.7817 59.5751 35.5289 59.5868 35.2713C59.5985 35.0137 59.5541 34.7566 59.4563 34.515C59.3682 34.3238 59.2379 34.1516 59.0736 34.0092C58.9094 33.8667 58.7147 33.7572 58.5021 33.6875C57.9129 33.5046 57.2897 33.4324 56.6696 33.475C56.4641 33.4599 56.2589 33.5082 56.0865 33.6123C55.9142 33.7165 55.7845 33.8705 55.7181 34.05L55.5522 34.8C55.4217 35.3925 55.2803 36.0375 55.158 36.6275L55.0764 37.0125Z" fill="#FEFEFE"/>
<path d="M9.31172 57.265C8.98661 56.9779 8.71152 56.6465 8.49609 56.2825C8.16056 55.7207 7.99794 55.0854 8.02575 54.445C7.31887 43.3625 7.94147 33.67 11.7831 25.75C12.2534 24.78 12.3268 24.4875 13.3083 24.04C16.3067 23.0291 19.523 22.6864 22.6934 23.04C22.7913 22.79 22.9843 22.54 22.9 22.29C20.031 22.0788 17.1436 22.2898 14.3468 22.915C12.4437 23.195 10.5895 23.5025 10.1328 26.2825C6.2939 35.63 6.57122 44.4825 6.97087 53.18C6.968 53.8074 7.07072 54.4315 7.27537 55.03C8.02303 57.2225 8.74622 57.1475 9.31444 57.2625L9.31172 57.265Z" fill="#EBEFFF"/>
<path d="M24.0555 55.8775C24.0555 53.57 23.8489 51.2625 23.8489 48.945C23.7472 47.6227 23.4349 46.3213 22.9218 45.0825C22.3657 44.1813 21.7291 43.3242 21.0187 42.52C23.1788 46.2948 23.8512 50.6409 22.9218 54.82C23.3078 55.175 23.6531 55.5325 24.0555 55.8775V55.8775Z" fill="#EBEFFF"/>
<path d="M24.2621 56.335L24.0691 56.2675C23.3437 55.9809 22.7215 55.5111 22.2747 54.9125L22.0871 54.695H22.2638C22.3046 53.8675 22.2883 53.11 22.2638 52.375C22.2475 51.6 22.2285 50.8 22.2774 49.92V49.7725L22.4378 49.795C22.8813 49.8346 23.3004 50.0003 23.6366 50.2692C23.9729 50.5381 24.2096 50.8966 24.3138 51.295V51.335L24.2784 53.7225L24.2431 56.1475L24.2621 56.335ZM22.5466 54.8C22.9203 55.2785 23.4098 55.6705 23.9767 55.945C23.9767 55.155 23.9984 54.445 24.0093 53.7175C24.0093 52.9675 24.031 52.2 24.0446 51.35C23.9602 51.0292 23.7749 50.7385 23.5119 50.5139C23.2489 50.2894 22.9197 50.1411 22.5656 50.0875C22.5276 50.8975 22.5439 51.645 22.5656 52.37C22.5656 53.1375 22.5928 53.93 22.5466 54.8Z" fill="#373435"/>
<path d="M27.8726 59.1425C27.3056 58.9367 26.828 58.5651 26.5133 58.085C26.4154 53.965 26.3311 49.835 26.2414 45.7125L26.9238 46.3375C27.0766 47.2061 27.1466 48.0852 27.1331 48.965L27.3425 49.465C27.3386 52.6971 27.5156 55.9272 27.8726 59.1425V59.1425Z" fill="#EBEFFF"/>
<path d="M28.0983 60.0575L27.908 60C27.1172 59.7441 26.4627 59.22 26.0783 58.535L26.0592 58.5V58.45C26.0592 57.0775 26.0864 55.6575 26.0864 54.2675V54.2325L26.1054 54.2025C26.516 53.515 26.8694 53.0725 27.2555 53.1425C27.5572 53.1975 27.8971 53.52 28.1255 55.48C28.1255 56.9375 28.0983 58.4225 28.0983 59.875V60.0575ZM26.3501 58.4325C26.671 58.9876 27.1851 59.4277 27.8101 59.6825C27.8101 58.29 27.8237 56.8725 27.8373 55.4975C27.6252 53.675 27.3207 53.425 27.2011 53.4025C27.0815 53.38 26.8477 53.52 26.3855 54.3C26.3719 55.675 26.3719 57.0775 26.3501 58.435V58.4325Z" fill="#373435"/>
<path d="M23.1094 45.1425C23.1178 44.9305 23.0846 44.7188 23.0115 44.5175C23.123 44.5425 23.2344 44.555 23.3432 44.5825L25.1022 45.8975C25.3472 45.802 25.5422 45.6227 25.646 45.3975C25.7572 45.3959 25.8674 45.4176 25.9682 45.4609C26.069 45.5042 26.1577 45.568 26.2278 45.6475C26.255 46.695 26.1734 47.7275 26.2006 48.7725C26.3832 48.9157 26.5014 49.1162 26.5323 49.335C27.2606 49.3618 27.9868 49.4261 28.7073 49.5275C28.7481 49.6925 28.8052 49.795 28.8459 49.9625C28.0329 49.8787 27.2121 49.8787 26.3991 49.9625V50.435C27.0367 50.4049 27.676 50.4478 28.3022 50.5625L28.3702 50.9075C27.6932 50.8329 27.0084 50.8413 26.3338 50.9325C26.4317 53.505 26.4317 56.08 26.3338 58.6525C26.1109 58.1675 25.684 57.695 25.4475 57.21C25.8697 53.9104 25.9252 50.5799 25.6133 47.27C24.9683 46.3927 24.1113 45.6646 23.1094 45.1425V45.1425Z" fill="#373435"/>
<path d="M25.9477 58.81C25.8273 58.5717 25.6864 58.3427 25.5263 58.125C25.353 57.8855 25.1986 57.6348 25.0642 57.375L25.0125 57.2725L25.0288 57.16C25.4409 53.9235 25.4974 50.657 25.1974 47.41C24.5834 46.6257 23.7935 45.9718 22.881 45.4925L22.6363 45.3475L22.6907 45.0825C22.6917 44.9865 22.6752 44.891 22.6418 44.8C22.6232 44.7347 22.6068 44.6688 22.5928 44.6025L22.4678 43.99L23.1257 44.14L23.2671 44.1675C23.3296 44.1675 23.3948 44.19 23.4574 44.205L23.5498 44.2275L25.1376 45.4125C25.184 45.3729 25.2203 45.3242 25.2436 45.27L25.3496 45.02H25.6514C25.8332 45.0187 26.0128 45.0568 26.1758 45.131C26.3387 45.2053 26.4804 45.3137 26.5894 45.4475L26.6628 45.545V45.665C26.6764 46.1975 26.6628 46.7325 26.6492 47.2475C26.6492 47.705 26.6247 48.1775 26.6329 48.6425C26.7268 48.7413 26.8055 48.8515 26.8667 48.97C27.318 48.9875 27.7639 49.0425 28.1989 49.0925L28.7589 49.155L29.0634 49.1875L29.1314 49.4625C29.1471 49.5234 29.1661 49.5834 29.1885 49.6425C29.2157 49.72 29.2456 49.8 29.2701 49.8925L29.4033 50.4225L28.8133 50.38H28.7073L28.9058 51.38L28.3321 51.325C27.8185 51.2708 27.3003 51.2633 26.7851 51.3025C26.8698 53.7636 26.8698 56.2265 26.7851 58.6875L25.9477 58.81ZM25.9097 57.15L25.9613 57.24V56.6925C25.9487 56.8458 25.9314 56.9983 25.9097 57.15ZM25.3252 46.25C25.4972 46.4188 25.6561 46.5984 25.8009 46.7875V45.9225C25.6647 46.0567 25.5036 46.1676 25.3252 46.25V46.25Z" fill="#373435"/>
<path d="M24.7977 22.41C26.052 22.2585 27.2604 21.8768 28.3511 21.2875C30.5137 20.174 32.9257 19.5325 35.4008 19.4125C34.3768 18.9872 33.2248 18.899 32.1383 19.1625C29.4702 19.758 26.9688 20.8646 24.7977 22.41V22.41Z" fill="#EBEFFF"/>
<path d="M38.3724 21.025C44.3259 19.4491 50.6772 19.7125 56.4521 21.775C50.775 19.4809 44.4039 19.0856 38.4431 20.6575C38.4404 20.9125 38.3724 20.785 38.3724 21.025V21.025Z" fill="#EBEFFF"/>
<defs>
<linearGradient id="paint0_linear" x1="22.9438" y1="15.6536" x2="37.7903" y2="69.4208" gradientUnits="userSpaceOnUse">
<stop stop-color="#8A9FE0"/>
<stop offset="0.588" stop-color="#7182B8"/>
<stop offset="1" stop-color="#576490"/>
</linearGradient>
</defs>
</svg>
