<svg width="75" height="62" viewBox="0 0 75 62" fill="none" xmlns="http://www.w3.org/2000/svg">
<g clip-path="url(#clip0)">
<path d="M72.0615 47.6112C68.059 49.618 47.325 57.8187 42.9108 60.0323C38.4967 62.2463 36.0445 62.2249 32.5573 60.6213C29.0704 59.0178 7.00576 50.4443 3.03105 48.6167C1.04473 47.7036 0 46.9326 0 46.2044V38.912C0 38.912 28.7256 32.8966 33.363 31.2962C38.0001 29.6957 39.6091 29.638 43.5554 31.0285C47.5022 32.4195 71.0997 36.5149 75 37.889L74.9982 45.0782C74.9988 45.7991 74.0988 46.5899 72.0615 47.6112" fill="#912626"/>
<path d="M72.0601 40.362C68.0578 42.368 47.3244 50.5689 42.9103 52.7823C38.4964 54.9965 36.0443 54.9748 32.5573 53.3713C29.0701 51.7689 7.00636 43.194 3.03195 41.3675C-0.942466 39.5399 -1.02567 38.2822 2.87843 36.8116C6.78253 35.3406 28.7253 27.0593 33.3633 25.4589C38.0004 23.859 39.6091 23.8007 43.5554 25.1917C47.502 26.5822 68.1117 34.4734 72.0114 35.8473C75.9126 37.2228 76.0623 38.3554 72.0601 40.362" fill="#C6302B"/>
<path d="M72.0615 35.8118C68.059 37.8189 47.325 46.0192 42.9108 48.2337C38.4967 50.4469 36.0445 50.4254 32.5573 48.8219C29.0701 47.2192 7.00576 38.6449 3.03105 36.8173C1.04473 35.9042 0 35.1343 0 34.4058V27.1126C0 27.1126 28.7256 21.0975 33.363 19.497C38.0001 17.8966 39.6091 17.8385 43.5554 19.2293C47.5025 20.6201 71.1 24.7146 75 26.089L74.9982 33.2791C74.9988 33.9997 74.0988 34.7905 72.0615 35.8118Z" fill="#912626"/>
<path d="M72.0601 28.5625C68.0578 30.5691 47.3244 38.7694 42.9103 40.9837C38.4964 43.1971 36.0443 43.1754 32.5573 41.5718C29.0701 39.9694 7.00636 31.3948 3.03195 29.5681C-0.942466 27.741 -1.02567 26.483 2.87843 25.0119C6.78253 23.5417 28.7256 15.2599 33.3633 13.6597C38.0004 12.0596 39.6091 12.0015 43.5554 13.3923C47.502 14.7828 68.1117 22.6734 72.0114 24.0478C75.9126 25.4231 76.0623 26.556 72.0601 28.5625" fill="#C6302B"/>
<path d="M72.0615 23.5749C68.059 25.5815 47.325 33.7824 42.9108 35.9969C38.4967 38.2103 36.0445 38.1886 32.5573 36.5851C29.0701 34.9824 7.00576 26.4078 3.03105 24.581C1.04473 23.6671 0 22.8969 0 22.1692V14.8758C0 14.8758 28.7256 8.86093 33.363 7.26076C38.0001 5.66004 39.6091 5.60255 43.5554 6.99304C47.5025 8.38381 71.1 12.4783 75 13.8528L74.9982 21.0425C74.9988 21.7626 74.0988 22.5533 72.0615 23.5749Z" fill="#912626"/>
<path d="M72.0601 16.3257C68.0578 18.3323 47.3245 26.5332 42.9103 28.7466C38.4964 30.96 36.0443 30.9383 32.5574 29.3356C29.0704 27.732 7.00639 19.158 3.03227 17.331C-0.942437 15.5042 -1.02535 14.2459 2.87846 12.7751C6.78256 11.3046 28.7256 3.02391 33.3633 1.42318C38.0004 -0.177263 39.6091 -0.234753 43.5554 1.15602C47.502 2.54679 68.1118 10.4374 72.0115 11.8118C75.9126 13.186 76.0623 14.3192 72.0601 16.3257" fill="#C6302B"/>
<path d="M46.6649 9.23152L40.2167 9.87547L38.7732 13.2167L36.4418 9.48826L28.996 8.84458L34.5519 6.91723L32.8849 3.9587L38.0865 5.91565L42.9902 4.37128L41.6648 7.43042L46.6649 9.23152" fill="white"/>
<path d="M38.3883 25.4411L26.354 20.6398L43.5981 18.0936L38.3883 25.4411" fill="white"/>
<path d="M21.7037 11.0887C26.794 11.0887 30.9205 12.6274 30.9205 14.5252C30.9205 16.4235 26.794 17.962 21.7037 17.962C16.6134 17.962 12.4869 16.4232 12.4869 14.5252C12.4869 12.6274 16.6134 11.0887 21.7037 11.0887Z" fill="white"/>
<path d="M54.2856 10.1449L64.4915 14.0244L54.2944 17.9002L54.2856 10.1446" fill="#621B1C"/>
<path d="M42.9946 14.4412L54.2856 10.1449L54.2944 17.9002L53.1873 18.3168L42.9946 14.4412Z" fill="#9A2928"/>
</g>
<defs>
<clipPath id="clip0">
<rect width="75" height="62" fill="white"/>
</clipPath>
</defs>
</svg>
