<svg width="32" height="32" viewBox="0 0 32 32" fill="none" xmlns="http://www.w3.org/2000/svg">
<path d="M32 16C32 24.839 24.839 32 16 32C7.161 32 0 24.839 0 16C0 7.161 7.161 0 16 0C24.839 0 32 7.161 32 16ZM22.995 5.917C21.37 5.973 19.954 6.869 18.896 8.109C17.724 9.469 16.948 11.082 16.385 12.724C15.385 11.907 14.614 10.839 13.005 10.375C12.3697 10.1809 11.6971 10.142 11.0437 10.2617C10.3903 10.3814 9.77518 10.6562 9.25 11.063C8.7049 11.4892 8.30439 12.073 8.103 12.735C7.624 14.303 8.614 15.703 9.062 16.203L10.046 17.255C10.245 17.459 10.739 18 10.494 18.771C10.239 19.615 9.229 20.156 8.187 19.839C7.723 19.698 7.056 19.35 7.207 18.864C7.27 18.661 7.411 18.516 7.488 18.344C7.556 18.197 7.592 18.083 7.613 18.021C7.801 17.401 7.545 16.593 6.878 16.39C6.258 16.197 5.629 16.349 5.378 17.145C5.102 18.052 5.534 19.693 7.858 20.412C10.582 21.245 12.878 19.765 13.206 17.833C13.41 16.625 12.862 15.724 11.862 14.573L11.045 13.666C10.55 13.177 10.384 12.333 10.894 11.687C11.326 11.139 11.941 10.911 12.946 11.182C14.419 11.583 15.071 12.598 16.165 13.421C15.712 14.901 15.414 16.385 15.149 17.718L14.988 18.713C14.207 22.806 13.613 25.057 12.061 26.349C11.748 26.568 11.301 26.901 10.634 26.926C10.279 26.931 10.159 26.693 10.159 26.583C10.148 26.338 10.358 26.223 10.498 26.114C10.701 26.005 11.019 25.811 10.993 25.213C10.972 24.505 10.384 23.89 9.534 23.917C8.899 23.937 7.93 24.536 7.967 25.63C8.003 26.765 9.06 27.614 10.648 27.557C11.503 27.53 13.399 27.182 15.268 24.958C17.445 22.411 18.055 19.489 18.513 17.349L19.024 14.53C19.309 14.562 19.612 14.583 19.945 14.593C22.653 14.65 24.008 13.245 24.028 12.224C24.044 11.604 23.623 10.995 23.039 11.011C22.788 11.0173 22.5462 11.1066 22.3514 11.2649C22.1565 11.4233 22.0196 11.6416 21.962 11.886C21.837 12.454 22.826 12.97 22.055 13.47C21.508 13.823 20.524 14.074 19.143 13.87L19.394 12.479C19.91 9.844 20.539 6.604 22.941 6.527C23.118 6.516 23.758 6.531 23.769 6.954C23.774 7.094 23.744 7.137 23.577 7.454C23.4214 7.66051 23.3422 7.91463 23.353 8.173C23.373 8.845 23.884 9.288 24.629 9.261C25.618 9.23 25.9 8.261 25.889 7.766C25.848 6.599 24.618 5.87 22.993 5.918L22.995 5.917Z" fill="#4568C1"/>
</svg>
