<svg width="60" height="53" viewBox="0 0 60 53" fill="none" xmlns="http://www.w3.org/2000/svg">
<path d="M8.57625 9.04809C9.0675 9.71059 13.2638 6.38484 16.9275 7.12519C20.7919 7.90694 24.4538 13.2931 26.0175 29.8158C28.3705 31.6837 30.5881 33.6807 32.6569 35.7949C33.3194 36.4728 33.9525 37.1464 34.5562 37.8155C34.6468 37.0357 34.7902 36.2614 34.9856 35.4968C35.6669 32.8748 36.9293 30.398 38.7 28.2093C38.1047 22.7714 35.9295 17.5615 32.385 13.0844C30.4537 10.6911 23.76 2.35519 16.3613 3.4069C11.5913 4.08265 8.0625 8.37069 8.57625 9.04809V9.04809Z" fill="#63BF6A"/>
<path d="M45.75 49.6875C45.2493 46.142 44.9365 42.5777 44.8125 39.0063C44.6363 33.6533 45 31.4853 46.5 29.473C46.8619 28.9844 48.915 26.2019 51.3375 26.3874C54.0862 26.5994 55.4869 30.3856 55.7663 30.258C56.0944 30.109 55.0912 24.3899 51.0187 22.9192C46.1437 21.1586 39.1838 26.3476 36.3937 31.4555C35.6482 32.9442 35.1087 34.5068 34.7869 36.1096C33.6944 40.5687 33.2471 45.1322 33.4556 49.6908L45.75 49.6875Z" fill="#74D74D"/>
<path d="M4.19625 23.0798C4.46813 22.3395 8.82375 22.6509 12.7088 23.5651C17.3963 24.6682 25.8338 27.4474 34.5544 37.8188C37.0356 41.3769 38.2445 45.5132 38.0231 49.6875H19.4738C19.6707 47.1338 19.5607 44.5689 19.1456 42.0356C18.7896 37.7991 17.2014 33.7156 14.535 30.1802C10.2019 25.1071 3.85313 24.0156 4.19625 23.0798V23.0798Z" fill="#78DC50"/>
<path d="M32.4375 35.3162C32.4371 35.9879 32.1731 36.6387 31.6904 37.1577C31.2077 37.6768 30.5362 38.0319 29.7904 38.1626C29.0445 38.2934 28.2704 38.1916 27.5999 37.8747C26.9294 37.5578 26.4041 37.0454 26.1134 36.4247C25.8227 35.804 25.7846 35.1135 26.0057 34.4708C26.2267 33.8281 26.6932 33.273 27.3256 32.9C27.958 32.5271 28.7173 32.3593 29.474 32.4254C30.2307 32.4915 30.9381 32.7873 31.4756 33.2625C31.7812 33.532 32.0235 33.8521 32.1886 34.2046C32.3536 34.557 32.4382 34.9348 32.4375 35.3162V35.3162Z" fill="white"/>
<path d="M41.2031 35.3162C41.2027 35.9879 40.9387 36.6387 40.456 37.1577C39.9733 37.6768 39.3019 38.0319 38.556 38.1626C37.8101 38.2934 37.036 38.1916 36.3655 37.8747C35.6951 37.5578 35.1697 37.0454 34.879 36.4247C34.5883 35.804 34.5503 35.1135 34.7713 34.4708C34.9923 33.8281 35.4588 33.273 36.0912 32.9C36.7237 32.5271 37.4829 32.3593 38.2396 32.4254C38.9964 32.4915 39.7037 32.7873 40.2412 33.2625C40.5468 33.532 40.7891 33.8521 40.9542 34.2046C41.1193 34.557 41.2039 34.9348 41.2031 35.3162V35.3162Z" fill="white"/>
</svg>
